# xmcd
#
# Track frame offsets: 
#        150
#        23695
#        38485
#        55575
#        70885
#        89260
#        111285
#        130992
#        145587
#        167647
#        181790
#        199892
#        219932
#        234183
#
# Disc length: 3330 seconds
#
# Revision: 0
# Processed by: cddbd v1.5.2PL0 Copyright (c) Steve Scherf et al.
# Submitted via: ExactAudioCopyFreeDBPlugin 1.0
#
DISCID=b00d000e
DTITLE=The Be Five - Trying To Forget
DYEAR=2013
DGENRE=Blues
TTITLE0=Tell Me How
TTITLE1=If You Want Candy
TTITLE2=When You Were By My Side
TTITLE3=I Don't Know Who You Are
TTITLE4=High On The Strength Of Your Love
TTITLE5=How Was I To Know
TTITLE6=Lovely In Loveland
TTITLE7=Might Be You
TTITLE8=The Touch Of Your Hand
TTITLE9=Can't Imagine Blues
TTITLE10=Put It On Down
TTITLE11=It's Just A TV Show
TTITLE12=My Brother's Moved On
TTITLE13=Last Train
EXTD=
EXTT0=
EXTT1=
EXTT2=
EXTT3=
EXTT4=
EXTT5=
EXTT6=
EXTT7=
EXTT8=
EXTT9=
EXTT10=
EXTT11=
EXTT12=
EXTT13=
PLAYORDER=
